<?xml version="1.0" encoding="UTF-8" standalone="no"?>
<!DOCTYPE svg PUBLIC "-//W3C//DTD SVG 1.1//EN" "http://www.w3.org/Graphics/SVG/1.1/DTD/svg11.dtd">

<!--
  ScorePress - Music Engraving Software - Symbol Library
  Copyright (C) 2013 Dominik Lehmann
  
  This work is made available under the terms of the
  Creative Commons Attribution-ShareAlike 3.0 license,
  http://creativecommons.org/licenses/by-sa/3.0/.
-->

<svg xmlns="http://www.w3.org/2000/svg"
     id="ScorepressSymbolLibrary"
     version="1.1">
  
  <title>ScorePress - Symbol Library</title>
  <desc>file://default.xml</desc>
  
  <!-- HEADS -->
  <g id="head_whole">
    <path d="M  0 10
             A 15 10   0 0 1 30 10
             A 15 10   0 0 1  0 10
             M 15 18
             A  6  8 -20 0 0 15  2
             A  6  8 -20 0 0 15 18
             Z"
    />
  </g>
  <g id="head_half">
     <path d="M  0 13
              C  0  5 10  0 17  0
              C 22  0 25  3 25  7
              C 25 15 15 20  8 20
              C  3 20  0 17  0 13
              M 21  4
              C 18  1  1 13  4 16
              C  7 19 24  7 21  4
              Z"
     />
  </g>
  <g id="head_quarter">
     <path d="M  0 13
              C  0  5 10  0 17  0
              C 22  0 25  3 25  7
              C 25 15 15 20  8 20
              C  3 20  0 17  0 13
              Z"
     />
  </g>
  
  <!-- FLAG -->
  <g id="flag">
    <path d="M  0    0
             C  0   10   20   16   20   32
             C 20   35   20   40   15   45
             C 13   47   11   45   13   43
             C 16   40   16.5 36   16.5 32
             C 16.5 26    8   18    0   14
             Z"
    />
  </g>
  <g id="flag_overlay">
    <path d="M  0     0
             C  0    10     20    16     20    32
             C 20    33     20    36     17.5  40.5
             C 17.5  40.5   15.5  37.5   15.5  37.5
             C 16    35     16    34     16.5  32
             C 16.5  26      8    18      0    14
             Z"
    />
  </g>
  
  <!-- RESTS -->
  <g id="rest_whole">
    <path d="M  0  0 L 20  0 L 20 10 L  0 10 Z"/>
  </g>
  <g id="rest_half">
    <path d="M  0 10 L 20 10 L 20 20 L  0 20 Z"/>
  </g>
  <g id="rest_quarter">
    <path d="M  7.5  13
             C 10    16     16    23     19    27
             C 20.5  29     19    30.5   18    31.5
             C   8   40      8    42.5   18.5  54.5
             C 19.5  55.5   18    57     17    56
             C 13    52.5    9    52.5    7    54
             C  4.5  56      5.5  62      7.5  65
             C  8    66      7    66      6.5  65.5
             C  3    60.5   -2    51      0.5  48.5
             C  2.5  46.5    8    48     12    50
             C  7.5  45      1    38      1    36
             C  1    31      8.5  31     10    25
             C 11    20      7    16      6    14.5
             C  5    13      6.5  12      7.5  13
             Z"
    />
  </g>
  <g id="flag_rest">
    <path d="M  0    6  
             C  0    2     3     0     6    0
             C 11    0     9.5   6.5  11.5  7.5
             C 13.5  8.5  16     5    17    3  
             C 18    1    19.5   2    19    3  
             C 18    6    18     6    15   10  
             C 13   11    10    11.5   6   11.5
             C  3   11.5   0     9     0    6  
             Z"
    />
  </g>
  <g id="rest_bottom">
    <path d="M 0 0
             C 0 3  6 3  6 0
             Z"
    />
  </g>
  
  <!-- ACCIDENTALS -->
  <g id="sharp">
    <path d="M  0 18  L 18 10  L 18 20  L  0 28 Z
             M  0 38  L 18 30  L 18 40  L  0 48 Z
             M  4  6  L  7  6  L  7 56  L  4 56 Z
             M 11  4  L 14  4  L 14 52  L 11 52 Z"
    />
  </g>
  <g id="natural">
    <path d="M  0 20  L 15 10  L 15 20  L  0 30 Z
             M  0 40  L 15 30  L 15 40  L  0 50 Z
             M  0  4  L  3  4  L  3 40  L  0 40 Z
             M 12 12  L 15 12  L 15 56  L 12 56 Z"
    />
  </g>
  <g id="flat">
    <path d="M  0  0 L  0 45 L  3 45 L  3  0 Z
             M  3 45 C 22 39  22 15  3 25
             M  3 27 C 12 20  15 35  3 42    Z"
    />
  </g>
  <g id="double_sharp">
    <path d="M  0,20
             C  0.3  18.25    0.4  17.6     0.4  12.6
             C  5.4  12.6     5.5  12.75    8.8  10.1
             C  6.4   7.7     5.9   7.5     0.4   7.5
             C  0.4   2.5     0.5   2.4     0.1   0.2
             C  2     0.5     4.4   0.5     7.4   0.5
             C  7.4   6       7.5   6.2    10     9
             C 12.6   6.6    12.6   5.5    12.6   0.5
             C 17     0.5    17.5   0.6    20     0
             C 19.9   1      19.5   2      19.6   7.5
             C 14     7.5    14     7.75   11    10.25
             C 13.75 12.6    13.75 12.6    19.6  12.6
             C 19.6  17      19.6  17.5    20    20
             C 18.5  19.8    18    19.6    12.6  19.6
             C 12.6  14.5    12.6  14.2     9.9  11.2
             C  7.4  14       7.4  14.25    7.4  19.6
             C  2.5  19.6     1.75 19.7     0    20     Z"
    />
  </g>
  <g id="double_flat">
    <path d="M  0  0 L  0 45 L  3 45 L  3  0 Z
             M  3 45 C 22 39  22 15   3 25
             M  3 27 C 12 20  15 35   3 42   Z
             M 15 -1 L 15 44 L 18 44 L 18 -1 Z
             M 18 44 C 37 38  37 14  18 24
             M 18 26 C 27 19  30 34  18 41   Z"
    />
  </g>
  <g id="half_sharp">
    <path d="M  0 18  L 11 10  L 11 20  L  0 28 Z
             M  0 38  L 11 30  L 11 40  L  0 48 Z
             M  4  6  L  7  6  L  7 56  L  4 56 Z"
    />
  </g>
  <g id="half_flat">
    <path d="M 22  0 L 22 45 L 19 45 L 19  0 Z
             M 19 45 C  0 39   0 15  19 25
             M 19 27 C 10 20   7 35  19 42   Z"
    />
  </g>
  
  
  <!-- SYSTEM BRACES -->
  <g id="brace">
    <path d="M  0.5  149
             C  9.5  139      15.5  130      15.5  113
             C 15.5  100       8     73       8     58.5
             C  8     25      26      5      33      1
             C 34.5    0      35.5    2      34      3
             C 30      6      18     23      18     45.5
             C 18     60      24     80      24    101
             C 24    130      12    142       4    150
             C 12    158      24    170      24    199
             C 24    221      18    240      18    254.5
             C 18    277      30    294      34    297
             C 35.5  298      34.5  300      33    299
             C 26    295       8    275       8    241.5
             C  8    227      15.5  210      15.5  190
             C 15.5  170       9.5  161       0.5  151
             C  0    150.5     0    149.5     0.5  149
             Z"
    />
  </g>
  <g id="bracket">
    <path d="M  0    35
             L  0    20
             C 25    20      34     0      34     0
             C 34.5  -0.5    35.5   0.5    35     1
             C 35     1      20    30       7    30
             L  7    35
             Z"
    />
  </g>
  
  
  <!-- ARTICULATION SYMBOLS -->
  <g id="dot">
    <path d="M 3.5 0
             A 3.5 3.5  0 0 0  3.5 7
             A 3.5 3.5  0 0 0  3.5 0"
    />
  </g>
  <g id="accent">
    <path d="M  0      0
             L 30      8
             L  0     16
             L  0     13.5
             L 20.625  8
             L  0      2.5
             Z"
    />
  </g>
  <g id="tenuto">
    <path d="M  0 0   L 25 0   L 25 5   L  0 5   Z"/>
  </g>
  <g id="marcato">
    <path d=" M  0 18   L  9  0   L 18 18 
              L 12 18   L  7  8   L  2 18   Z"
    />
  </g>
  
  <!-- CLEFS -->
  <g id="gclef">
    <path d="M   0    75
             C   0    49     39    39     39    17
             C  39     6     25    14     25    33
             C  36   120     25    33     36   120
             C  38   139      8   140      8   123
             C   8   112     23.5 111     23.5 122
             C  23.5 128     18   129     15   129
             C  18   134.5   35   134     33   119.5
             C  22    33     33   119.5   22    33
             C  20    13     30     0     35     0
             C  38    0      42    10     42    19.5
             C  42    56      5.5  55      5.5  82
             C   5.5 104     42   111     42    87
             C  42    69     19    72     19    84.5
             C  19    88     21    92     24.5  93.5
             C  25.5  94     25    95     23.5  94.5
             C  19    93     14.5  87     14.5  82
             C  14.5  71     23    65     31.5  65
             C  39.5  65     48    71     48    84
             C  48    97     38   105     27.5 105
             C  15   105      0    94      0    75    Z"
       />
  </g>
  <g id="fclef">
    <path d="M  43    24
             C  43    47.5   21    59.5    2.5  65.5
             C   0.5  66      0    65      1    64  
             C  18    56     32    46     32    24
             C  32    15     30     3     19.5   3
             C  13.5   3      7     7      7    14
             C   8.5  12     10.5  11     13    11
             C  16    11     20.5  14     20.5  20
             C  20.5  31      2.5  32      2.5  17
             C   2.5   6.5   10.5   0     22     0
             C  36     0     43    10     43    24    Z
             M  49    10
             C  49     8     51     6     53     6
             C  55     6     57     8     57    10
             C  57    12     55    14     53    14
             C  51    14     49    12     49    10    Z
             M  49    30
             C  49    28     51    26     53    26
             C  55    26     57    28     57    30
             C  57    32     55    34     53    34
             C  51    34     49    32     49    30    Z"
    />
  </g>
  
  <!-- DIGITS FOR TIME SIGNATURES -->
  <g id="timesig0">
    <path d="M 16     2
             C  7     2       2    12       2    20
             C  2    28       7    38      16    38
             C 25    38      30    28      30    20
             C 30    12      25     2      16     2     Z
             M 16     6
             C 21     6      22    18      22    20
             C 22    22      21    34      16    34
             C 11    34      10    22      10    20
             C 10    18      11     6      16     6     Z"
    />
  </g>
  <g id="timesig1">
    <path d="M 10     3
             L 20     3
             L 20    35
             C 20    36      23    37      24.5  37.5
             L 24.5  39    
             L  6    39
             L  6    37.5
             C  7    37      10    36      10    35
             L 10    11
             C  9    13       5    17       4    18.5
             C  3.8  18.7     3.3  18.2     3.5  18
             C  7    12       9     5      10     3     Z"
    />
  </g>
  <g id="timesig2">
    <path d="M  2.5  13
             C  2.5   3      13     2      17     2
             C 24     2      31     5      31    13
             C 31    20.5    23    20      11    28
             C 24.5  28      26    36      31    26
             C 31.25 25.5    32    26      32    27
             C 32    30      30    39      24    39
             C 16    39      10    31       4.5  37.5
             C  4    38       2.5  38.5     2.5  36.5
             C  2.5  26      20.5  21.5    20.5  13
             C 20.5   7      15     3.5     9     7
             C  9     7       8.5   7.5     9     7.5
             C 11.5   8      13    10      13    13
             C 13    19       2.5  19       2.5  13     Z"
    />
  </g>
  <g id="timesig3">
    <path d="M 13.5  11
             C 13.5   8      11.5   6      10.5   6
             C 10     6      10     5.7    10.5   5.5
             C 15.5   3.5    21     5      21    12
             C 21    13      21    18.5    13    18.5
             C 10    18.5    10    22      13    22
             C 20    22      21    25      21    29
             C 21    37      15.5  36.5    11    35.5
             C 10.5  35.4    10.5  35.2    11    35
             C 12.5  34.4    13    32      13    30.5
             C 13    24.5     3.5  24.5     3.5  30.5
             C  3.5  36       9    38.5    16    38.5
             C 28    38.5    30    33      30    28
             C 30    24      28    21      23    21
             C 22    21      22    20      23    20
             C 27    20      29.5  14.5    29.5  12
             C 29.5   4      22     2      16     2
             C  9     2       4     5       4    10
             C  4    14       7    15       9    15
             C 12    15      13.5  13      13.5  11     Z"
    />
  </g>
  <g id="timesig4">
    <path d="M  1    27
             C  3.5  24.5    11     9      11     2
             L 24     2
             C 24     8.5     6    23.5     6    27
             L 17    27
             L 17    18
             L 26     9.5
             L 26    27
             L 31    27
             L 31    30
             L 26    30
             C 26    35      26.5  36      31    36
             L 31    38
             L 12    38
             L 12    36
             C 17    36      17    35      17    30
             L  1    30
             L  1    27      Z"
    />
  </g>
  <g id="timesig5">
    <path d="M  2     1
             C  7     2      19     2      24     1
             C 24    11       7     9.5     5     8
             L  5    17
             C 12    10      28    15      28    26
             C 28    34      20    38      12    38
             C  4    38       1    34       1    30
             C  1    26       4    24       6    24
             C  8    24      12    25      12    29
             C 12    31       9.5  33       9    33.5
             C  8.5  34       8.5  34       9    34.5
             C  9.5  35      10    35.5    12    35.5
             C  16   35.5    19    33      19    26
             C  19   18      10.5  15.5     5    20.5
             L   2   20.5
             L   2    1      Z"
    />
  </g>
  <g id="timesig6">
    <path d="M 17    38
             C 27    38      31    33      31    26
             C 31    20      27    16      21    16
             C 17    16      13    18.5    12    19
             C 12    11      13     4      18     4
             C 20     4      21     5      21     5.5
             C 21     7      20     7      20     9
             C 20    12.5    22    14.5    25    14.5
             C 28    14.5    29.5  12      29.5   9
             C 29.5   5      25     2      18     2
             C 12     2       3     6       3    20
             C  3    30       7    38      17    38     Z
             M 17    35.5
             C 13.5  35.5    12.5  31      12.5  27
             C 12.5  22      13.5  20      18    20
             C 22    20      23    23      23    27
             C 23    32      20.5  35.5    17    35.5   Z"
    />
  </g>
  <g id="timesig7">
    <path d="M  7     4
             C  9     4      10     1      13     1
             C 16     1      18     5      21     5
             C 23.5   5      25.5   1.5    27.5   1.5
             C 28     1.5    28     1.5    28     2
             C 28    17      18    23      18    37
             L  7    37
             C  7    32      20    15      24    11
             C 18    17      13     7      10     7
             C  7     7       4    13       2    13
             C  1.5  13       1    10       1     7
             C  1     4       1.5   1       2     1
             C  5     1       4     4       7     4     Z"
    />
  </g>
  <g id="timesig8">
    <path d="M 16     2
             C  7     2       3     6       3    12
             C  3    16       5    18.5     8    20.5
             C  6    22       2    23       2    29
             C  2    36      10    39      16    39
             C 22    39      30    36      30    28
             C 30    22      27    21      25    19.5
             C 28    17      29    15      29    11
             C 29     5      25     2      16     2     Z
             M 16     4.5
             C 21     4.5    24     6      24    10
             C 24    14      21.5  16      19.5  17
             C 17.5  16       9.5  14       9.5   9
             C  9.5   6      11     4.5    16     4.5   Z
             M 11.5  22.5
             C 12.5  22.5    23    27      23    31
             C 23    34      20    36      16    36
             C 10    36       7    32       7    29
             C  7    24      11.5  22.5    11.5  22.5   Z"
    />
  </g>
  <g id="timesig9">
    <path d="M 17     2
             C  7     2       3     7       3    14
             C  3    20       7    24      13    24
             C 17    24      21    21.5    22    21
             C 22    29      21    36      16    36
             C 14    36      13    35      13    34.5
             C 13    33      14    33      14    31
             C 14    27.5    12    25.5     9    25.5
             C  6    25.5     4.5  28       4.5  31
             C  4.5  35       9    38      16    38
             C 22    38      31    34      31    20
             C 31    10      27     2      17     2     Z
             M 17     4.5
             C 20.5   4.5    21.5   9      21.5  13
             C 21.5  18      20.5  20      16    20
             C 12    20      11    17      11    13
             C 11     8      13.5   4.5    17     4.5   Z"
    />
  </g>
  
  <!-- TIME SIGNATURE SYMBOLS -->
  <g id="timesigC">
    <path d="M  0    20
             C  0     8       8     1      17     1
             C 23     1      30     7      30    13
             C 30    16      28    19      25    19
             C 22    19      20    16      20    13
             C 20     9      23     8.5    24     8
             C 24.5   7.75   24.25  7.25   24     7
             C 23     6      20     5      17     5
             C 11     5       9    11       9    20
             C  9    29      12    34      18    34
             C 26    34      29    25      29    25
             C 29.25 24      30    24      30    25
             C 30    30      26    38      18    38
             C  8    38       0    33       0    20     Z"
    />
  </g>
  <g id="allabreve">
    <path d="M  0    20
             C  0     8       8     1      17     1
             C 23     1      30     7      30    13
             C 30    16      28    19      25    19
             C 22    19      20    16      20    13
             C 20     9      23     8.5    24     8
             C 24.5   7.75   24.25  7.25   24     7
             C 23     6      20     5      17     5
             C 11     5       9    11       9    20
             C  9    29      12    34      18    34
             C 26    34      29    25      29    25
             C 29.25 24      30    24      30    25
             C 30    30      26    38      18    38
             C  8    38       0    33       0    20     Z
             M 16    -2
             L 18    -2    L 18    41    L 16    41     Z"
    />
  </g>
</svg>

